<?xml version="1.0" standalone="no"?>
<!DOCTYPE svg PUBLIC "-//W3C//DTD SVG 20010904//EN"
 "http://www.w3.org/TR/2001/REC-SVG-20010904/DTD/svg10.dtd">
<svg version="1.0" xmlns="http://www.w3.org/2000/svg"
 width="512.000000pt" height="512.000000pt" viewBox="0 0 512.000000 512.000000"
 preserveAspectRatio="xMidYMid meet">
<metadata>
Created by potrace 1.14, written by Peter Selinger 2001-2017
</metadata>
<g transform="translate(0.000000,512.000000) scale(0.100000,-0.100000)"
fill="#000000" stroke="none">
<path d="M2345 5029 c-601 -62 -1127 -310 -1540 -724 -60 -61 -138 -147 -173
-191 -62 -79 -62 -80 -135 -98 -133 -34 -399 -148 -419 -180 -12 -18 -9 -44 8
-60 13 -13 28 -15 78 -10 36 4 86 1 121 -6 99 -20 97 -16 48 -117 -112 -228
-196 -511 -234 -793 -17 -122 -17 -468 0 -590 38 -283 118 -553 231 -785 325
-669 924 -1154 1640 -1329 411 -100 779 -100 1190 0 716 175 1315 660 1640
1329 113 232 193 502 231 785 17 122 17 468 0 590 -96 701 -436 1287 -985
1697 -330 247 -721 406 -1151 469 -126 18 -431 26 -550 13z m-1117 -1000 c571
-62 1119 -352 1480 -784 379 -453 527 -1047 397 -1593 -25 -103 -101 -312
-113 -312 -4 0 -17 46 -30 103 -33 146 -121 401 -191 556 -257 568 -700 1071
-1211 1376 -100 60 -339 179 -346 173 -2 -2 28 -27 66 -56 674 -504 1176
-1341 1315 -2192 8 -52 18 -110 21 -127 6 -41 6 -41 -168 -7 -313 60 -592 144
-763 229 -235 118 -465 337 -577 551 -89 170 -132 355 -168 729 -11 121 -30
276 -41 345 -49 296 -157 515 -318 644 -123 100 -242 145 -380 147 l-86 1 100
48 c300 146 667 207 1013 169z m3229 -1383 c309 -460 201 -1175 -230 -1521
-98 -79 -269 -167 -382 -196 -81 -21 -325 -37 -325 -22 0 5 40 34 88 65 396
260 694 734 737 1174 l6 59 -39 -101 c-167 -428 -504 -803 -901 -1004 -33 -16
-62 -26 -65 -22 -3 5 -12 73 -22 153 -19 168 -15 361 11 454 33 120 92 223
179 311 91 91 138 120 372 227 273 125 383 221 428 376 20 67 20 133 1 186 -8
22 -15 42 -14 45 0 12 114 -122 156 -184z"/>
</g>
</svg>
